Coordinates
nRows=9
nColumns=38

# SIMM Motion File Header:
name Coordinates
datacolumns 38
datarows 9
otherdata 1
range 2.31400000000000010000 2.32200000000000010000

Units are S.I. units (second, meters, Newtons, ...)
Angles are in degrees.

endheader
time	pelvis_tilt	pelvis_list	pelvis_rotation	pelvis_tx	pelvis_ty	pelvis_tz	hip_flexion_r	hip_adduction_r	hip_rotation_r	knee_angle_r	ankle_angle_r	subtalar_angle_r	mtp_angle_r	hip_flexion_l	hip_adduction_l	hip_rotation_l	knee_angle_l	ankle_angle_l	subtalar_angle_l	mtp_angle_l	lumbar_extension	lumbar_bending	lumbar_rotation	arm_flex_r	arm_add_r	arm_rot_r	elbow_flex_r	pro_sup_r	wrist_flex_r	wrist_dev_r	arm_flex_l	arm_add_l	arm_rot_l	elbow_flex_l	pro_sup_l	wrist_flex_l	wrist_dev_l
      2.31400000000000010000	    -11.42764643484031800000	      0.12189817314828119000	      2.37732829639913890000	      0.97221652340029385000	      1.02828378626895310000	     -0.34529156151641266000	      0.08296598167239016600	      3.47777356599452060000	     -1.73622218697721850000	    -51.06452190925594400000	    -15.51479891451830200000	      0.00000000000008382237	      0.00000000000000877310	     32.40818758974814500000	      5.77075100543945660000	      1.94925870455915560000	    -11.65874779902092100000	      2.83363706955036850000	      0.00000000000002920909	     -0.00000000000002794575	     -1.19440055627929120000	     -0.11821092741928776000	     11.30287304276113300000	    -20.02769257169645900000	    -21.81464009508592400000	     -5.30973536461777320000	    118.81471732392399000000	    110.53000503220677000000	     -0.00000000000001372361	      0.00000000000002982225	    -46.49999742006867400000	     -7.89024752708074400000	    -12.30411222743927400000	    118.37512003768734000000	    104.18597173021129000000	     -0.00000000000000102357	     -0.00000000000000895143
      2.31499999999999990000	    -11.44358626829418300000	      0.10077916744627680000	      2.37863705294188500000	      0.97222613602850028000	      1.02767522321323310000	     -0.34524247805439401000	      0.29887370381127643000	      3.46718997739406690000	     -1.75362217977646660000	    -51.60472172872054800000	    -15.41729318924574500000	      0.00000000000008425290	      0.00000000000000870618	     32.40363281762948600000	      5.75838855059641830000	      1.93063198551776450000	    -11.76190631789726600000	      2.79786646642774310000	      0.00000000000002930615	     -0.00000000000002806501	     -1.16878345977414530000	     -0.11170301169831698000	     11.25536851898029600000	    -20.11434708676805300000	    -21.76940301033487300000	     -5.36309352695970000000	    118.60621253275121000000	    110.55609740794969000000	     -0.00000000000001377997	      0.00000000000002996115	    -46.44159163726428800000	     -7.87681741772369830000	    -12.30914772838608700000	    118.35689958092205000000	    104.17875891964765000000	     -0.00000000000000103103	     -0.00000000000000898507
      2.31599999999999980000	    -11.46139095556432800000	      0.07982492402281582400	      2.37967003519235610000	      0.97223508712734097000	      1.02705429784127360000	     -0.34519308426167228000	      0.51800942375704184000	      3.45504900244481880000	     -1.77328927213401320000	    -52.14521631454272200000	    -15.31976250204176000000	      0.00000000000008468160	      0.00000000000000864076	     32.40151172176423000000	      5.74553198252342150000	      1.91007013223559460000	    -11.87030871625070500000	      2.75572959317884130000	      0.00000000000002940333	     -0.00000000000002818199	     -1.14077672386642770000	     -0.10543623991100619000	     11.20742058643398800000	    -20.20187216684857000000	    -21.72413477304762400000	     -5.41656734088288430000	    118.39629711210264000000	    110.58236680661744000000	     -0.00000000000001383565	      0.00000000000003009997	    -46.38233936645323000000	     -7.86472523379540340000	    -12.31347208347318700000	    118.33790660059427000000	    104.17061316183349000000	     -0.00000000000000103897	     -0.00000000000000901956
      2.31700000000000020000	    -11.48098964097638200000	      0.05913534042915502600	      2.38039659124943710000	      0.97224343650767719000	      1.02642113371005060000	     -0.34514339138225758000	      0.74024058179814878000	      3.44123703146015720000	     -1.79508467235967980000	    -52.68591073735883900000	    -15.22203305601672900000	      0.00000000000008510913	      0.00000000000000857507	     32.40173947441054700000	      5.73227936303392480000	      1.88752592584576680000	    -11.98393633141151500000	      2.70790622031046540000	      0.00000000000002950000	     -0.00000000000002829740	     -1.11046354527547390000	     -0.09951745389446989300	     11.15904937886739600000	    -20.29022218683428500000	    -21.67884458389887600000	     -5.47012703946404510000	    118.18495482399170000000	    110.60865923655469000000	     -0.00000000000001389067	      0.00000000000003024037	    -46.32224881929378300000	     -7.85396401305463240000	    -12.31710421929705200000	    118.31814069009604000000	    104.16157711139859000000	     -0.00000000000000104711	     -0.00000000000000905481
      2.31800000000000010000	    -11.50215299443331300000	      0.03884503934004139600	      2.38079889371311990000	      0.97225131041273860000	      1.02577608360981000000	     -0.34509343967254485000	      0.96524464959727629000	      3.42561113842786470000	     -1.81888289050429770000	    -53.22666430230194100000	    -15.12393207742754200000	      0.00000000000008553589	      0.00000000000000850970	     32.40404997790945900000	      5.71876141005419130000	      1.86293086742499160000	    -12.10273924055832500000	      2.65496695050314190000	      0.00000000000002959664	     -0.00000000000002841380	     -1.07810973620396490000	     -0.09408377160830486100	     11.11026240200950500000	    -20.37931921729892800000	    -21.63354361490414800000	     -5.52374157685524290000	    117.97216629940515000000	    110.63482205935711000000	     -0.00000000000001394585	      0.00000000000003038199	    -46.26129938597384200000	     -7.84452431596774070000	    -12.32006214779546500000	    118.29760476042975000000	    104.15169281101875000000	     -0.00000000000000105471	     -0.00000000000000909020
      2.31900000000000000000	    -11.52470540082090300000	      0.01907915441483138500	      2.38088327985454870000	      0.97225877959256746000	      1.02511943701739280000	     -0.34504330438155423000	      1.19276652442158390000	      3.40803840088259150000	     -1.84457832772502070000	    -53.76734925162433100000	    -15.02528970779603200000	      0.00000000000008596174	      0.00000000000000844354	     32.40826660661077300000	      5.70511299158669780000	      1.83616708952516670000	    -12.22672154425879800000	      2.59704008471536390000	      0.00000000000002969243	     -0.00000000000002853058	     -1.04392257818398490000	     -0.08926359592098896700	     11.06104311738884300000	    -20.46908975809824900000	    -21.58823980949046400000	     -5.57738007334338890000	    117.75790414977010000000	    110.66071235001546000000	     -0.00000000000001400129	      0.00000000000003052499	    -46.19947539765554700000	     -7.83639426334071750000	    -12.32236435257503300000	    118.27629455989965000000	    104.14100350839706000000	     -0.00000000000000106204	     -0.00000000000000912593
      2.31999999999999980000	    -11.54850078752194700000	     -0.00005150907468883110	      2.38066465858997840000	      0.97226588864354446000	      1.02445143604144430000	     -0.34499307299273840000	      1.42258863802497860000	      3.38840356238389440000	     -1.87206860492182140000	    -54.30784487931757100000	    -14.92593964443026200000	      0.00000000000008638638	      0.00000000000000837749	     32.41426140657102200000	      5.69146468569685470000	      1.80714909689064700000	    -12.35591880388873600000	      2.53442711249655210000	      0.00000000000002978774	     -0.00000000000002864795	     -1.00807610443939600000	     -0.08517008203442472100	     11.01136634955790200000	    -20.55946434609985800000	    -21.54294216579648900000	     -5.63101276005201350000	    117.54213829031883000000	    110.68619477078363000000	     -0.00000000000001405672	      0.00000000000003066799	    -46.13676693944027100000	     -7.82955785078732890000	    -12.32402923811726400000	    118.25420323220057000000	    104.12955375701591000000	     -0.00000000000000106954	     -0.00000000000000916043
      2.32100000000000020000	    -11.57342196327770400000	     -0.01844467337203376000	      2.38016765674442610000	      0.97227265197439106000	      1.02377228226604530000	     -0.34494284679242943000	      1.65453051859202470000	      3.36660202269186340000	     -1.90125694045827420000	    -54.84803917926665700000	    -14.82571919017233600000	      0.00000000000008681063	      0.00000000000000831187	     32.42195567187481900000	      5.67794796850320350000	      1.77580333511530970000	    -12.49040059276843800000	      2.46747563630221480000	      0.00000000000002988258	     -0.00000000000002876534	     -0.97071312943870480000	     -0.08190800547605904500	     10.96119701156057000000	    -20.65037549483246700000	    -21.49765926408170800000	     -5.68461019548419880000	    117.32483432485506000000	    110.71114311449587000000	     -0.00000000000001411237	      0.00000000000003080972	    -46.07316818152376200000	     -7.82399612487863380000	    -12.32507571852003800000	    118.23132092304328000000	    104.11738844215847000000	     -0.00000000000000107710	     -0.00000000000000919458
      2.32200000000000010000	    -11.59938225348606300000	     -0.03600561477806280000	      2.37942422562875280000	      0.97227905302811501000	      1.02308213496379730000	     -0.34489273694909567000	      1.88845098068003630000	      3.34253859537913470000	     -1.93205003930781570000	    -55.38783067950256400000	    -14.72446982650044600000	      0.00000000000008723569	      0.00000000000000824491	     32.43132075405147700000	      5.66469497269810770000	      1.74206828398379710000	    -12.63026915284155100000	      2.39657934764474060000	      0.00000000000002997740	     -0.00000000000002888298	     -0.93194387062250639000	     -0.07957520179521239400	     10.91049239098191500000	    -20.74175742545785500000	    -21.45239907349566300000	     -5.73814302322157750000	    117.10595332452746000000	    110.73544108157029000000	     -0.00000000000001416808	      0.00000000000003095051	    -46.00867726495326300000	     -7.81968759012682830000	    -12.32552343893235600000	    118.20763489797878000000	    104.10455222294271000000	     -0.00000000000000108508	     -0.00000000000000922827
